<svg xmlns="http://www.w3.org/2000/svg" xmlns:xlink="http://www.w3.org/1999/xlink" width="3000" zoomAndPan="magnify" viewBox="0 0 2250 2250.000011" height="3000" preserveAspectRatio="xMidYMid meet" version="1.0"><defs><clipPath id="414e4f2127"><path d="M 1079 175 L 1917.070312 175 L 1917.070312 957 L 1079 957 Z M 1079 175 " clip-rule="nonzero"/></clipPath><clipPath id="6ed78622e0"><path d="M 578.914062 993 L 1628 993 L 1628 2024 L 578.914062 2024 Z M 578.914062 993 " clip-rule="nonzero"/></clipPath><clipPath id="b0ba76a6e7"><path d="M 372 1189 L 1489.042969 1189 L 1489.042969 1828.960938 L 372 1828.960938 Z M 372 1189 " clip-rule="nonzero"/></clipPath></defs><g clip-path="url(#414e4f2127)"><path fill="#8dc63f" d="M 1079.976562 913.273438 C 1079.976562 913.273438 1055.144531 268.140625 1917.070312 175.167969 C 1917.070312 175.167969 1805.390625 838.894531 1172.925781 956.710938 L 1582.175781 454.230469 Z M 1079.976562 913.273438 " fill-opacity="1" fill-rule="nonzero"/></g><path fill="#8dc63f" d="M 1023.214844 956.285156 C 1023.214844 956.285156 688.039062 969.199219 639.648438 521.085938 C 639.648438 521.085938 984.476562 579.140625 1045.777344 908.023438 L 784.675781 695.25 Z M 1023.214844 956.285156 " fill-opacity="1" fill-rule="nonzero"/><g clip-path="url(#6ed78622e0)"><path fill="#f1842e" d="M 1627.726562 1543.222656 C 1627.726562 1239.460938 1381.523438 993.332031 1077.992188 993.332031 C 856.761719 993.332031 666.1875 1123.917969 578.914062 1312.277344 C 597.363281 1317.957031 615.808594 1324.058594 634.257812 1330.730469 C 713.582031 1165.367188 882.449219 1051.246094 1077.992188 1051.246094 C 1349.59375 1051.246094 1569.832031 1271.542969 1569.832031 1543.222656 C 1569.832031 1738.960938 1455.597656 1907.875 1290.136719 1987.222656 C 1308.160156 2000.28125 1326.605469 2012.488281 1345.195312 2023.84375 C 1513.777344 1929.875 1627.726562 1749.890625 1627.726562 1543.222656 Z M 1627.726562 1543.222656 " fill-opacity="1" fill-rule="nonzero"/></g><path fill="#f1842e" d="M 505.203125 1739.671875 C 527.402344 1759.414062 556.679688 1769.292969 586.382812 1768.839844 L 1354.863281 1755.078125 L 621.226562 1743.15625 C 586.621094 1742.683594 552.144531 1737.332031 519.472656 1725.929688 C 505.875 1721.183594 492.1875 1715.273438 480.335938 1708 C 480.335938 1708 487.144531 1723.617188 505.203125 1739.671875 " fill-opacity="1" fill-rule="nonzero"/><path fill="#f1842e" d="M 612.753906 1384.90625 C 625.109375 1337.234375 678.664062 1281.03125 678.664062 1281.03125 C 797.839844 1237.777344 1032.949219 1234.835938 1032.949219 1234.835938 C 918.191406 1218.945312 714.855469 1224.535156 661.011719 1271.324219 C 622.582031 1304.710938 585.351562 1366.574219 567.179688 1399.265625 C 562.328125 1408 569.574219 1418.441406 579.449219 1416.945312 C 837.675781 1377.789062 1188.921875 1385.382812 1188.921875 1385.382812 C 897.609375 1338.886719 612.753906 1384.90625 612.753906 1384.90625 " fill-opacity="1" fill-rule="nonzero"/><path fill="#f1842e" d="M 752.234375 1621.488281 C 802.839844 1627.960938 941.726562 1632.671875 985.867188 1600.59375 C 985.867188 1600.59375 831.386719 1613.835938 751.046875 1595.300781 C 670.71875 1576.761719 630.996094 1697.699219 647.769531 1717.117188 C 664.535156 1736.539062 791.660156 1730.359375 791.660156 1730.359375 C 791.660156 1730.359375 692.203125 1723.300781 675.71875 1698.582031 C 659.242188 1673.863281 701.613281 1615.007812 752.234375 1621.488281 " fill-opacity="1" fill-rule="nonzero"/><path fill="#f1842e" d="M 465.621094 1507.316406 C 465.621094 1507.316406 440.902344 1590.886719 511.527344 1616.195312 C 582.144531 1641.496094 662.1875 1597.945312 662.1875 1597.945312 C 662.1875 1597.945312 551.546875 1619.132812 516.675781 1584.265625 C 481.808594 1549.394531 500.789062 1529.53125 500.789062 1529.53125 C 500.789062 1529.53125 542.277344 1519.378906 580.238281 1553.804688 C 618.195312 1588.238281 686.609375 1555.570312 686.609375 1555.570312 C 686.609375 1555.570312 615.101562 1544.980469 573.910156 1511.433594 C 532.710938 1477.890625 465.621094 1507.316406 465.621094 1507.316406 " fill-opacity="1" fill-rule="nonzero"/><g clip-path="url(#b0ba76a6e7)"><path fill="#f1842e" d="M 450.136719 1793.019531 C 429.929688 1792.863281 413.417969 1776.835938 412.738281 1756.640625 C 410.109375 1678.589844 411.1875 1566.164062 411.1875 1566.164062 C 440.089844 1518.703125 473.273438 1484.359375 473.273438 1484.359375 C 438.554688 1426.691406 546.835938 1417.859375 546.835938 1417.859375 C 576.851562 1344.296875 643.984375 1265.4375 643.984375 1265.4375 C 745.238281 1192.464844 1056.488281 1201.585938 1056.488281 1201.585938 C 859.632812 1171.570312 667.1875 1201.585938 628.34375 1236.894531 C 589.5 1272.207031 534.773438 1381.667969 534.773438 1381.667969 C 534.773438 1381.667969 471.210938 1401.089844 448.261719 1420.804688 C 425.3125 1440.523438 433.253906 1484.949219 433.253906 1484.949219 C 401.476562 1516.730469 386.175781 1550.277344 386.175781 1550.277344 L 373.226562 1760.960938 C 367.34375 1824.523438 405.007812 1829.230469 405.007812 1829.230469 L 1489.042969 1802.15625 L 450.136719 1793.019531 " fill-opacity="1" fill-rule="nonzero"/></g><path fill="#f1842e" d="M 425.605469 1451.40625 C 425.605469 1451.40625 420.015625 1424.839844 442.964844 1411.492188 C 442.964844 1411.492188 414.714844 1414.039062 392.058594 1421.683594 C 369.394531 1429.335938 375.578125 1389.023438 410.304688 1389.320312 C 445.027344 1389.613281 467.980469 1395.207031 467.980469 1395.207031 C 467.980469 1395.207031 495.964844 1379.917969 523.003906 1372.839844 C 523.003906 1372.839844 422.078125 1348.414062 377.34375 1369.015625 C 332.621094 1389.613281 345.492188 1454.347656 372.605469 1461.410156 C 399.710938 1468.472656 425.605469 1451.40625 425.605469 1451.40625 " fill-opacity="1" fill-rule="nonzero"/></svg>