<svg xmlns="http://www.w3.org/2000/svg" xmlns:xlink="http://www.w3.org/1999/xlink" width="3000" zoomAndPan="magnify" viewBox="0 0 2250 2250.000011" height="3000" preserveAspectRatio="xMidYMid meet" version="1.0"><defs><g/><clipPath id="faac806804"><path d="M 724 225 L 1438.984375 225 L 1438.984375 892 L 724 892 Z M 724 225 " clip-rule="nonzero"/></clipPath><clipPath id="af168b7df6"><path d="M 297.238281 923 L 1193 923 L 1193 1802 L 297.238281 1802 Z M 297.238281 923 " clip-rule="nonzero"/></clipPath><clipPath id="97dcc09616"><path d="M 121 1090 L 1073.675781 1090 L 1073.675781 1635.945312 L 121 1635.945312 Z M 121 1090 " clip-rule="nonzero"/></clipPath></defs><g clip-path="url(#faac806804)"><path fill="#8dc63f" d="M 724.757812 854.722656 C 724.757812 854.722656 703.570312 304.519531 1438.984375 225.226562 C 1438.984375 225.226562 1343.695312 791.289062 804.0625 891.765625 L 1153.246094 463.226562 Z M 724.757812 854.722656 " fill-opacity="1" fill-rule="nonzero"/></g><path fill="#8dc63f" d="M 676.328125 891.402344 C 676.328125 891.402344 390.347656 902.417969 349.058594 520.242188 C 349.058594 520.242188 643.273438 569.753906 695.578125 850.242188 L 472.800781 668.78125 Z M 676.328125 891.402344 " fill-opacity="1" fill-rule="nonzero"/><g clip-path="url(#af168b7df6)"><path fill="#f1842e" d="M 1192.109375 1391.972656 C 1192.109375 1132.910156 982.042969 923 723.0625 923 C 534.304688 923 371.703125 1034.371094 297.238281 1195.015625 C 312.980469 1199.855469 328.71875 1205.0625 344.460938 1210.75 C 412.140625 1069.71875 556.222656 972.390625 723.0625 972.390625 C 954.800781 972.390625 1142.710938 1160.269531 1142.710938 1391.972656 C 1142.710938 1558.910156 1045.246094 1702.96875 904.070312 1770.640625 C 919.449219 1781.777344 935.1875 1792.1875 951.046875 1801.871094 C 1094.886719 1721.734375 1192.109375 1568.234375 1192.109375 1391.972656 Z M 1192.109375 1391.972656 " fill-opacity="1" fill-rule="nonzero"/></g><path fill="#f1842e" d="M 234.355469 1559.894531 C 253.292969 1576.738281 278.273438 1585.167969 303.613281 1584.777344 L 959.203125 1573.039062 L 333.335938 1562.867188 C 303.816406 1562.464844 274.402344 1557.902344 246.53125 1548.175781 C 234.929688 1544.125 223.253906 1539.082031 213.144531 1532.878906 C 213.144531 1532.878906 218.953125 1546.203125 234.355469 1559.894531 " fill-opacity="1" fill-rule="nonzero"/><path fill="#f1842e" d="M 326.109375 1257.246094 C 336.652344 1216.574219 382.339844 1168.628906 382.339844 1168.628906 C 484.003906 1131.726562 684.578125 1129.21875 684.578125 1129.21875 C 586.679688 1115.660156 413.214844 1120.429688 367.277344 1160.347656 C 334.492188 1188.832031 302.734375 1241.605469 287.230469 1269.496094 C 283.089844 1276.945312 289.273438 1285.855469 297.695312 1284.578125 C 517.992188 1251.171875 817.640625 1257.652344 817.640625 1257.652344 C 569.121094 1217.984375 326.109375 1257.246094 326.109375 1257.246094 " fill-opacity="1" fill-rule="nonzero"/><path fill="#f1842e" d="M 445.101562 1459.074219 C 488.269531 1464.597656 606.757812 1468.613281 644.414062 1441.25 C 644.414062 1441.25 512.625 1452.546875 444.089844 1436.734375 C 375.558594 1420.917969 341.671875 1524.089844 355.980469 1540.65625 C 370.285156 1557.226562 478.734375 1551.953125 478.734375 1551.953125 C 478.734375 1551.953125 393.886719 1545.929688 379.824219 1524.839844 C 365.769531 1503.753906 401.917969 1453.546875 445.101562 1459.074219 " fill-opacity="1" fill-rule="nonzero"/><path fill="#f1842e" d="M 200.589844 1361.671875 C 200.589844 1361.671875 179.503906 1432.96875 239.753906 1454.558594 C 299.996094 1476.140625 368.28125 1438.988281 368.28125 1438.988281 C 368.28125 1438.988281 273.894531 1457.066406 244.144531 1427.320312 C 214.398438 1397.570312 230.59375 1380.625 230.59375 1380.625 C 230.59375 1380.625 265.984375 1371.964844 298.367188 1401.332031 C 330.753906 1430.707031 389.117188 1402.839844 389.117188 1402.839844 C 389.117188 1402.839844 328.113281 1393.804688 292.972656 1365.183594 C 257.824219 1336.570312 200.589844 1361.671875 200.589844 1361.671875 " fill-opacity="1" fill-rule="nonzero"/><g clip-path="url(#97dcc09616)"><path fill="#f1842e" d="M 187.378906 1605.40625 C 170.140625 1605.273438 156.058594 1591.601562 155.472656 1574.371094 C 153.234375 1507.789062 154.152344 1411.878906 154.152344 1411.878906 C 178.808594 1371.386719 207.117188 1342.089844 207.117188 1342.089844 C 177.5 1292.890625 269.875 1285.359375 269.875 1285.359375 C 295.480469 1222.601562 352.75 1155.328125 352.75 1155.328125 C 439.132812 1093.074219 704.660156 1100.851562 704.660156 1100.851562 C 536.722656 1075.246094 372.546875 1100.851562 339.410156 1130.972656 C 306.273438 1161.101562 259.582031 1254.480469 259.582031 1254.480469 C 259.582031 1254.480469 205.359375 1271.050781 185.78125 1287.871094 C 166.203125 1304.691406 172.976562 1342.589844 172.976562 1342.589844 C 145.871094 1369.703125 132.8125 1398.324219 132.8125 1398.324219 L 121.765625 1578.058594 C 116.746094 1632.285156 148.878906 1636.300781 148.878906 1636.300781 L 1073.675781 1613.203125 L 187.378906 1605.40625 " fill-opacity="1" fill-rule="nonzero"/></g><path fill="#f1842e" d="M 166.453125 1313.976562 C 166.453125 1313.976562 161.683594 1291.3125 181.261719 1279.925781 C 181.261719 1279.925781 157.160156 1282.097656 137.832031 1288.617188 C 118.5 1295.148438 123.773438 1260.757812 153.398438 1261.011719 C 183.023438 1261.261719 202.601562 1266.03125 202.601562 1266.03125 C 202.601562 1266.03125 226.476562 1252.992188 249.542969 1246.949219 C 249.542969 1246.949219 163.445312 1226.113281 125.28125 1243.6875 C 87.128906 1261.261719 98.109375 1316.484375 121.238281 1322.511719 C 144.359375 1328.535156 166.453125 1313.976562 166.453125 1313.976562 " fill-opacity="1" fill-rule="nonzero"/><g fill="#8dc63f" fill-opacity="1"><g transform="translate(1262.933484, 1691.484125)"><g><path d="M 241.15625 -140.046875 L 195.75 -140.046875 C 190.15625 -140.046875 184.492188 -140.550781 178.765625 -141.5625 C 173.046875 -142.582031 168.023438 -145.128906 163.703125 -149.203125 C 162.171875 -150.472656 160.703125 -151.929688 159.296875 -153.578125 C 157.898438 -155.234375 156.441406 -156.695312 154.921875 -157.96875 C 154.160156 -159.238281 153.144531 -160.257812 151.875 -161.03125 L 148.046875 -162.171875 C 147.546875 -162.171875 146.847656 -162.359375 145.953125 -162.734375 C 145.066406 -163.117188 144.367188 -163.1875 143.859375 -162.9375 C 143.597656 -162.9375 143.273438 -162.617188 142.890625 -161.984375 C 142.515625 -161.347656 142.203125 -160.898438 141.953125 -160.640625 C 141.691406 -160.390625 141.179688 -159.945312 140.421875 -159.3125 C 139.660156 -158.675781 139.148438 -158.101562 138.890625 -157.59375 C 138.640625 -156.832031 138.640625 -155.8125 138.890625 -154.53125 C 139.148438 -153.257812 139.28125 -152.242188 139.28125 -151.484375 C 139.28125 -150.460938 139.53125 -149.378906 140.03125 -148.234375 C 140.539062 -147.097656 140.925781 -145.894531 141.1875 -144.625 C 142.457031 -141.820312 143.789062 -139.082031 145.1875 -136.40625 C 146.59375 -133.738281 148.054688 -131.003906 149.578125 -128.203125 C 150.085938 -127.191406 150.660156 -126.367188 151.296875 -125.734375 C 151.929688 -125.097656 152.503906 -124.269531 153.015625 -123.25 C 153.523438 -123 153.90625 -122.617188 154.15625 -122.109375 C 154.414062 -121.597656 154.671875 -121.210938 154.921875 -120.953125 C 155.429688 -120.703125 156.066406 -120.578125 156.828125 -120.578125 C 157.585938 -120.578125 158.097656 -120.578125 158.359375 -120.578125 C 158.867188 -120.328125 159.566406 -120.070312 160.453125 -119.8125 C 161.347656 -119.5625 162.046875 -119.5625 162.546875 -119.8125 C 163.316406 -119.8125 164.082031 -120 164.84375 -120.375 C 165.601562 -120.757812 166.238281 -121.082031 166.75 -121.34375 C 168.78125 -122.101562 170.75 -122.925781 172.65625 -123.8125 C 174.570312 -124.707031 176.546875 -125.410156 178.578125 -125.921875 C 181.117188 -126.941406 183.789062 -127.515625 186.59375 -127.640625 C 189.394531 -127.765625 192.066406 -127.953125 194.609375 -128.203125 C 200.453125 -128.460938 206.300781 -128.523438 212.15625 -128.390625 C 218.007812 -128.265625 223.734375 -128.203125 229.328125 -128.203125 C 232.890625 -128.203125 236.703125 -128.140625 240.765625 -128.015625 C 244.835938 -127.890625 248.53125 -127.191406 251.84375 -125.921875 C 256.164062 -124.390625 259.472656 -122.035156 261.765625 -118.859375 C 264.054688 -115.679688 266.472656 -112.4375 269.015625 -109.125 C 271.046875 -106.582031 273.394531 -104.359375 276.0625 -102.453125 C 278.738281 -100.546875 281.347656 -98.445312 283.890625 -96.15625 L 287.703125 -92.71875 C 289.742188 -89.925781 290.890625 -86.8125 291.140625 -83.375 C 291.398438 -79.9375 291.273438 -76.566406 290.765625 -73.265625 C 290.253906 -68.429688 289.109375 -63.597656 287.328125 -58.765625 C 285.546875 -53.929688 283.382812 -49.351562 280.84375 -45.03125 C 278.550781 -40.957031 275.878906 -37.078125 272.828125 -33.390625 C 269.773438 -29.703125 266.722656 -26.078125 263.671875 -22.515625 C 259.597656 -17.679688 255.332031 -12.972656 250.875 -8.390625 C 246.425781 -3.816406 241.535156 0.25 236.203125 3.8125 C 233.910156 6.101562 229.140625 8.457031 221.890625 10.875 C 214.640625 13.289062 206.242188 15.578125 196.703125 17.734375 C 187.160156 19.898438 177.617188 21.8125 168.078125 23.46875 C 158.546875 25.125 150.15625 26.394531 142.90625 27.28125 C 135.65625 28.175781 130.882812 28.492188 128.59375 28.234375 C 125.789062 27.984375 120.703125 27.410156 113.328125 26.515625 C 105.953125 25.628906 97.8125 24.296875 88.90625 22.515625 C 80 20.734375 71.859375 18.695312 64.484375 16.40625 C 57.109375 14.113281 52.019531 11.570312 49.21875 8.78125 C 45.914062 6.488281 42.609375 4.066406 39.296875 1.515625 C 35.992188 -1.023438 32.941406 -3.820312 30.140625 -6.875 C 26.835938 -10.6875 23.660156 -14.691406 20.609375 -18.890625 C 17.554688 -23.085938 14.503906 -27.222656 11.453125 -31.296875 C 6.867188 -36.890625 2.796875 -42.484375 -0.765625 -48.078125 C -6.867188 -57.492188 -11.066406 -67.925781 -13.359375 -79.375 C -14.628906 -83.1875 -15.582031 -88.78125 -16.21875 -96.15625 C -16.851562 -103.53125 -17.234375 -110.90625 -17.359375 -118.28125 C -17.484375 -125.664062 -17.546875 -131.265625 -17.546875 -135.078125 C -17.546875 -137.878906 -17.289062 -143.285156 -16.78125 -151.296875 C -16.28125 -159.304688 -15.519531 -168.144531 -14.5 -177.8125 C -13.476562 -187.476562 -12.015625 -196.316406 -10.109375 -204.328125 C -8.203125 -212.347656 -5.847656 -217.753906 -3.046875 -220.546875 C 0.515625 -226.398438 4.898438 -232.125 10.109375 -237.71875 C 15.328125 -243.320312 20.734375 -248.539062 26.328125 -253.375 C 32.179688 -258.707031 38.539062 -263.914062 45.40625 -269 C 52.269531 -274.09375 58.503906 -278.421875 64.109375 -281.984375 C 69.953125 -284.785156 76.4375 -287.203125 83.5625 -289.234375 C 90.6875 -291.265625 97.046875 -292.789062 102.640625 -293.8125 C 108.242188 -294.832031 113.84375 -295.53125 119.4375 -295.90625 C 125.03125 -296.289062 130.625 -296.484375 136.21875 -296.484375 C 138.507812 -296.484375 142.769531 -295.972656 149 -294.953125 C 155.238281 -293.941406 162.363281 -292.546875 170.375 -290.765625 C 178.382812 -288.984375 186.332031 -286.945312 194.21875 -284.65625 C 202.101562 -282.363281 209.160156 -280.007812 215.390625 -277.59375 C 221.628906 -275.175781 225.894531 -272.820312 228.1875 -270.53125 C 232.757812 -267.226562 236.953125 -263.476562 240.765625 -259.28125 C 244.585938 -255.082031 248.535156 -250.945312 252.609375 -246.875 C 255.660156 -243.570312 258.835938 -240.457031 262.140625 -237.53125 C 265.453125 -234.601562 268.503906 -231.488281 271.296875 -228.1875 C 274.859375 -223.863281 278.101562 -219.15625 281.03125 -214.0625 C 283.957031 -208.976562 286.3125 -203.640625 288.09375 -198.046875 C 289.363281 -194.734375 290.316406 -191.359375 290.953125 -187.921875 C 291.585938 -184.492188 291.648438 -181 291.140625 -177.4375 C 290.890625 -176.925781 290.828125 -176.285156 290.953125 -175.515625 C 291.078125 -174.753906 291.015625 -174.125 290.765625 -173.625 C 289.742188 -170.3125 287.894531 -167.253906 285.21875 -164.453125 C 282.550781 -161.660156 280.070312 -158.863281 277.78125 -156.0625 C 275.75 -153.519531 273.648438 -150.976562 271.484375 -148.4375 C 269.328125 -145.894531 266.59375 -143.984375 263.28125 -142.703125 C 260.226562 -141.429688 256.796875 -140.671875 252.984375 -140.421875 C 249.171875 -140.171875 245.226562 -140.046875 241.15625 -140.046875 Z M 214.0625 -102.265625 C 208.46875 -102.265625 201.984375 -102.132812 194.609375 -101.875 C 187.234375 -101.625 180.742188 -99.335938 175.140625 -95.015625 C 173.109375 -93.234375 171.265625 -91.257812 169.609375 -89.09375 C 167.953125 -86.9375 166.109375 -84.835938 164.078125 -82.796875 C 161.273438 -80.003906 158.03125 -77.585938 154.34375 -75.546875 C 150.65625 -73.515625 146.773438 -72.5 142.703125 -72.5 C 137.109375 -72.25 131.832031 -73.773438 126.875 -77.078125 C 121.914062 -80.390625 118.414062 -84.84375 116.375 -90.4375 C 115.363281 -93.488281 114.664062 -96.726562 114.28125 -100.15625 C 113.894531 -103.59375 113.578125 -106.96875 113.328125 -110.28125 C 113.078125 -114.601562 112.953125 -119.050781 112.953125 -123.625 C 112.953125 -128.207031 112.953125 -132.660156 112.953125 -136.984375 C 112.953125 -139.785156 112.953125 -142.582031 112.953125 -145.375 C 112.953125 -148.175781 113.078125 -150.847656 113.328125 -153.390625 C 113.328125 -157.972656 113.582031 -162.679688 114.09375 -167.515625 C 114.601562 -172.347656 116.003906 -176.800781 118.296875 -180.875 C 120.328125 -184.6875 122.992188 -187.738281 126.296875 -190.03125 C 127.566406 -191.039062 128.835938 -191.800781 130.109375 -192.3125 C 131.390625 -192.820312 132.921875 -193.332031 134.703125 -193.84375 C 144.109375 -196.382812 152.628906 -194.476562 160.265625 -188.125 C 162.296875 -186.34375 164.203125 -184.367188 165.984375 -182.203125 C 167.765625 -180.035156 169.546875 -177.9375 171.328125 -175.90625 C 175.140625 -171.582031 179.460938 -168.53125 184.296875 -166.75 C 187.347656 -165.726562 190.523438 -165.15625 193.828125 -165.03125 C 197.140625 -164.90625 200.453125 -164.84375 203.765625 -164.84375 L 228.1875 -164.84375 C 232 -164.84375 235.875 -164.773438 239.8125 -164.640625 C 243.757812 -164.515625 247.640625 -164.835938 251.453125 -165.609375 C 252.472656 -165.859375 253.488281 -166.046875 254.5 -166.171875 C 255.519531 -166.304688 256.539062 -166.5 257.5625 -166.75 C 263.15625 -169.289062 266.59375 -173.488281 267.875 -179.34375 C 268.125 -180.101562 268.25 -180.925781 268.25 -181.8125 C 268.25 -182.707031 268.25 -183.664062 268.25 -184.6875 C 268.5 -188.5 268.050781 -192.375 266.90625 -196.3125 C 265.769531 -200.257812 264.4375 -204.015625 262.90625 -207.578125 C 260.363281 -210.378906 256.863281 -214.066406 252.40625 -218.640625 C 247.957031 -223.222656 243.1875 -227.929688 238.09375 -232.765625 C 233.007812 -237.597656 228.113281 -242.175781 223.40625 -246.5 C 218.707031 -250.820312 214.957031 -254.253906 212.15625 -256.796875 C 206.5625 -259.847656 199.820312 -262.265625 191.9375 -264.046875 C 184.050781 -265.828125 177.179688 -267.226562 171.328125 -268.25 C 163.953125 -269.519531 156.578125 -270.28125 149.203125 -270.53125 C 146.910156 -270.789062 141.753906 -269.644531 133.734375 -267.09375 C 125.722656 -264.550781 116.3125 -261.117188 105.5 -256.796875 C 94.695312 -252.472656 83.890625 -247.894531 73.078125 -243.0625 C 62.265625 -238.226562 52.847656 -233.710938 44.828125 -229.515625 C 36.816406 -225.316406 31.664062 -222.070312 29.375 -219.78125 C 26.582031 -216.988281 24.164062 -211.96875 22.125 -204.71875 C 20.09375 -197.46875 18.441406 -189.515625 17.171875 -180.859375 C 15.898438 -172.210938 15.007812 -164.265625 14.5 -157.015625 C 13.988281 -149.765625 13.734375 -144.742188 13.734375 -141.953125 C 13.734375 -139.660156 13.859375 -135.394531 14.109375 -129.15625 C 14.367188 -122.925781 14.816406 -115.738281 15.453125 -107.59375 C 16.085938 -99.457031 16.976562 -91.253906 18.125 -82.984375 C 19.269531 -74.722656 20.664062 -67.472656 22.3125 -61.234375 C 23.96875 -55.003906 25.941406 -50.742188 28.234375 -48.453125 C 30.523438 -46.171875 35.675781 -42.863281 43.6875 -38.53125 C 51.695312 -34.207031 61.109375 -29.566406 71.921875 -24.609375 C 82.734375 -19.648438 93.546875 -15.007812 104.359375 -10.6875 C 115.171875 -6.363281 124.582031 -2.863281 132.59375 -0.1875 C 140.613281 2.476562 145.765625 3.6875 148.046875 3.4375 C 151.609375 3.175781 155.234375 2.921875 158.921875 2.671875 C 162.609375 2.421875 166.109375 2.039062 169.421875 1.53125 C 175.273438 0.757812 181.378906 -0.320312 187.734375 -1.71875 C 194.097656 -3.113281 200.078125 -4.957031 205.671875 -7.25 C 209.484375 -9.539062 214.378906 -12.59375 220.359375 -16.40625 C 226.335938 -20.21875 232.316406 -24.347656 238.296875 -28.796875 C 244.273438 -33.253906 249.171875 -37.390625 252.984375 -41.203125 C 255.273438 -44.515625 257.3125 -47.882812 259.09375 -51.3125 C 260.875 -54.75 262.523438 -58.25 264.046875 -61.8125 C 265.828125 -66.132812 267.226562 -71.09375 268.25 -76.6875 C 269.269531 -82.289062 268.632812 -87.253906 266.34375 -91.578125 C 266.082031 -92.085938 265.757812 -92.785156 265.375 -93.671875 C 265 -94.566406 264.554688 -95.140625 264.046875 -95.390625 C 262.523438 -97.171875 260.617188 -98.503906 258.328125 -99.390625 C 256.035156 -100.285156 253.742188 -100.863281 251.453125 -101.125 C 249.421875 -101.625 247.195312 -101.9375 244.78125 -102.0625 C 242.363281 -102.195312 239.882812 -102.265625 237.34375 -102.265625 Z M 136.984375 -113.703125 L 139.28125 -109.125 C 139.53125 -108.875 139.71875 -108.554688 139.84375 -108.171875 C 139.976562 -107.796875 140.171875 -107.476562 140.421875 -107.21875 C 140.671875 -106.96875 141.175781 -106.96875 141.9375 -107.21875 C 142.707031 -107.476562 143.21875 -107.609375 143.46875 -107.609375 C 143.976562 -107.609375 144.613281 -107.609375 145.375 -107.609375 C 146.144531 -107.609375 146.65625 -107.734375 146.90625 -107.984375 C 147.414062 -108.242188 147.609375 -108.5625 147.484375 -108.9375 C 147.359375 -109.320312 147.421875 -109.640625 147.671875 -109.890625 C 147.921875 -110.660156 148.171875 -111.550781 148.421875 -112.5625 C 148.679688 -113.582031 148.8125 -114.472656 148.8125 -115.234375 C 148.8125 -115.742188 148.679688 -116.253906 148.421875 -116.765625 C 148.171875 -117.273438 148.046875 -117.65625 148.046875 -117.90625 C 147.796875 -118.664062 147.539062 -119.554688 147.28125 -120.578125 C 147.03125 -121.597656 146.648438 -122.363281 146.140625 -122.875 C 145.890625 -123.375 145.378906 -123.878906 144.609375 -124.390625 C 143.847656 -124.898438 143.210938 -125.410156 142.703125 -125.921875 C 142.453125 -125.921875 142.070312 -126.238281 141.5625 -126.875 C 141.050781 -127.507812 140.671875 -127.828125 140.421875 -127.828125 C 140.171875 -127.828125 139.851562 -127.445312 139.46875 -126.6875 C 139.082031 -125.925781 138.890625 -125.546875 138.890625 -125.546875 C 138.640625 -125.035156 138.257812 -124.394531 137.75 -123.625 C 137.238281 -122.863281 136.984375 -122.226562 136.984375 -121.71875 C 136.734375 -120.707031 136.609375 -119.5625 136.609375 -118.28125 C 136.609375 -117.007812 136.734375 -115.484375 136.984375 -113.703125 Z M 136.984375 -113.703125 "/></g></g></g><g fill="#8dc63f" fill-opacity="1"><g transform="translate(1542.631082, 1691.484125)"><g><path d="M 98.0625 26.328125 C 93.988281 27.597656 89.789062 28.488281 85.46875 29 C 81.144531 29.507812 76.820312 29.765625 72.5 29.765625 C 69.695312 29.503906 65.625 28.484375 60.28125 26.703125 C 54.945312 24.929688 49.222656 22.582031 43.109375 19.65625 C 37.003906 16.726562 31.28125 13.671875 25.9375 10.484375 C 20.601562 7.304688 16.535156 4.320312 13.734375 1.53125 C 9.660156 -3.5625 6.671875 -9.347656 4.765625 -15.828125 C 2.859375 -22.316406 1.269531 -28.359375 0 -33.953125 C -1.53125 -40.566406 -2.296875 -47.4375 -2.296875 -54.5625 C -2.296875 -60.414062 -1.28125 -66.835938 0.75 -73.828125 C 2.789062 -80.828125 4.957031 -87.125 7.25 -92.71875 C 8.519531 -95.519531 9.660156 -98.445312 10.671875 -101.5 C 11.691406 -104.550781 12.457031 -107.734375 12.96875 -111.046875 C 14.238281 -116.640625 14.425781 -122.101562 13.53125 -127.4375 C 12.644531 -132.78125 12.332031 -138.253906 12.59375 -143.859375 C 12.84375 -147.421875 13.410156 -150.914062 14.296875 -154.34375 C 15.191406 -157.78125 16.148438 -161.148438 17.171875 -164.453125 C 19.203125 -170.304688 21.679688 -175.96875 24.609375 -181.4375 C 27.535156 -186.90625 31.414062 -191.800781 36.25 -196.125 C 39.050781 -198.925781 43.117188 -201.660156 48.453125 -204.328125 C 53.796875 -207.003906 59.519531 -209.484375 65.625 -211.765625 C 71.738281 -214.054688 77.460938 -216.03125 82.796875 -217.6875 C 88.140625 -219.34375 92.210938 -220.550781 95.015625 -221.3125 C 97.804688 -222.070312 102.953125 -222.578125 110.453125 -222.828125 C 117.960938 -223.085938 126.234375 -222.898438 135.265625 -222.265625 C 144.296875 -221.628906 152.5625 -220.546875 160.0625 -219.015625 C 167.570312 -217.492188 172.726562 -215.332031 175.53125 -212.53125 C 180.363281 -210.25 185.003906 -207.644531 189.453125 -204.71875 C 193.898438 -201.789062 198.160156 -198.675781 202.234375 -195.375 C 207.066406 -191.8125 211.707031 -187.863281 216.15625 -183.53125 C 220.613281 -179.207031 224.367188 -174.378906 227.421875 -169.046875 C 230.722656 -165.222656 233.132812 -159.6875 234.65625 -152.4375 C 236.1875 -145.1875 237.269531 -137.9375 237.90625 -130.6875 C 238.550781 -123.4375 238.875 -117.90625 238.875 -114.09375 L 238.875 -41.203125 C 238.875 -37.648438 238.804688 -33.960938 238.671875 -30.140625 C 238.546875 -26.328125 237.847656 -22.640625 236.578125 -19.078125 C 235.304688 -15.265625 233.332031 -11.765625 230.65625 -8.578125 C 227.988281 -5.398438 225.640625 -2.03125 223.609375 1.53125 C 221.566406 4.832031 219.65625 8.453125 217.875 12.390625 C 216.09375 16.335938 213.425781 19.457031 209.875 21.75 C 208.851562 22.507812 207.578125 23.144531 206.046875 23.65625 C 204.523438 24.164062 203.128906 24.675781 201.859375 25.1875 C 198.546875 26.195312 194.851562 26.703125 190.78125 26.703125 C 186.71875 26.703125 182.90625 26.703125 179.34375 26.703125 C 173.75 26.703125 168.023438 26.765625 162.171875 26.890625 C 156.316406 27.023438 150.59375 26.328125 145 24.796875 C 141.1875 23.523438 137.429688 21.9375 133.734375 20.03125 C 130.046875 18.125 126.039062 17.425781 121.71875 17.9375 C 120.707031 17.9375 119.816406 18.0625 119.046875 18.3125 C 118.285156 18.570312 117.523438 18.953125 116.765625 19.453125 C 113.453125 20.472656 110.332031 21.617188 107.40625 22.890625 C 104.488281 24.160156 101.375 25.304688 98.0625 26.328125 Z M 215.59375 -153.78125 C 213.8125 -157.34375 211.898438 -160.835938 209.859375 -164.265625 C 207.828125 -167.703125 205.414062 -170.945312 202.625 -174 C 197.28125 -179.851562 190.597656 -184.6875 182.578125 -188.5 C 174.566406 -192.3125 167.640625 -195.109375 161.796875 -196.890625 C 159.503906 -198.421875 155.429688 -199.628906 149.578125 -200.515625 C 143.722656 -201.410156 137.046875 -201.921875 129.546875 -202.046875 C 122.046875 -202.171875 114.539062 -202.039062 107.03125 -201.65625 C 99.53125 -201.28125 92.851562 -200.582031 87 -199.5625 C 81.144531 -198.550781 77.078125 -197.28125 74.796875 -195.75 C 69.191406 -193.457031 62.066406 -189.957031 53.421875 -185.25 C 44.773438 -180.550781 37.78125 -175.273438 32.4375 -169.421875 C 30.65625 -167.390625 29 -165.164062 27.46875 -162.75 C 25.945312 -160.332031 24.675781 -157.722656 23.65625 -154.921875 C 23.65625 -154.410156 23.523438 -153.773438 23.265625 -153.015625 C 23.015625 -152.253906 22.765625 -151.617188 22.515625 -151.109375 C 22.515625 -150.085938 22.703125 -149.066406 23.078125 -148.046875 C 23.460938 -147.035156 23.785156 -146.144531 24.046875 -145.375 C 24.046875 -145.125 24.109375 -144.742188 24.234375 -144.234375 C 24.359375 -143.722656 24.929688 -142.960938 25.953125 -141.953125 C 26.710938 -141.441406 27.535156 -140.800781 28.421875 -140.03125 C 29.316406 -139.269531 30.144531 -138.632812 30.90625 -138.125 C 32.4375 -137.625 34.28125 -137.304688 36.4375 -137.171875 C 38.601562 -137.046875 40.445312 -136.859375 41.96875 -136.609375 L 66.015625 -136.609375 C 69.828125 -136.609375 73.703125 -136.609375 77.640625 -136.609375 C 81.585938 -136.609375 85.472656 -136.863281 89.296875 -137.375 C 91.835938 -137.875 94.316406 -138.503906 96.734375 -139.265625 C 99.148438 -140.035156 101.503906 -140.929688 103.796875 -141.953125 C 105.066406 -142.453125 106.523438 -143.082031 108.171875 -143.84375 C 109.828125 -144.613281 111.289062 -145.125 112.5625 -145.375 C 113.070312 -145.632812 113.707031 -145.695312 114.46875 -145.5625 C 115.238281 -145.4375 116.003906 -145.375 116.765625 -145.375 C 117.273438 -145.375 117.972656 -145.4375 118.859375 -145.5625 C 119.753906 -145.695312 120.453125 -145.632812 120.953125 -145.375 C 122.234375 -144.875 123.125 -143.984375 123.625 -142.703125 C 124.132812 -142.453125 124.769531 -142.007812 125.53125 -141.375 C 126.300781 -140.738281 126.6875 -140.164062 126.6875 -139.65625 C 126.6875 -139.40625 126.554688 -138.960938 126.296875 -138.328125 C 126.046875 -137.691406 125.796875 -137.117188 125.546875 -136.609375 C 125.285156 -136.097656 125.09375 -135.269531 124.96875 -134.125 C 124.84375 -132.976562 124.523438 -132.148438 124.015625 -131.640625 C 123.503906 -130.878906 122.613281 -130.304688 121.34375 -129.921875 C 120.070312 -129.546875 119.054688 -129.101562 118.296875 -128.59375 C 116.253906 -127.570312 114.023438 -126.867188 111.609375 -126.484375 C 109.191406 -126.109375 106.96875 -125.664062 104.9375 -125.15625 C 101.113281 -124.394531 97.296875 -123.695312 93.484375 -123.0625 C 89.671875 -122.425781 85.984375 -121.722656 82.421875 -120.953125 C 79.617188 -119.429688 74.65625 -116.507812 67.53125 -112.1875 C 60.414062 -107.863281 52.785156 -102.96875 44.640625 -97.5 C 36.503906 -92.03125 29.0625 -86.8125 22.3125 -81.84375 C 15.570312 -76.882812 11.1875 -73.003906 9.15625 -70.203125 C 8.394531 -67.921875 7.945312 -65.570312 7.8125 -63.15625 C 7.6875 -60.738281 7.5 -58.253906 7.25 -55.703125 C 7.25 -49.597656 8.519531 -43.367188 11.0625 -37.015625 C 13.351562 -34.722656 17.421875 -31.734375 23.265625 -28.046875 C 29.117188 -24.359375 35.796875 -20.539062 43.296875 -16.59375 C 50.804688 -12.65625 58.25 -9.03125 65.625 -5.71875 C 73.007812 -2.414062 79.625 -0.0664062 85.46875 1.328125 C 91.320312 2.734375 95.394531 2.671875 97.6875 1.140625 C 100.988281 0.378906 104.226562 -0.570312 107.40625 -1.71875 C 110.59375 -2.863281 113.710938 -4.328125 116.765625 -6.109375 C 118.285156 -7.117188 119.804688 -7.941406 121.328125 -8.578125 C 122.859375 -9.222656 124.515625 -9.796875 126.296875 -10.296875 C 126.804688 -10.554688 127.378906 -10.8125 128.015625 -11.0625 C 128.648438 -11.320312 129.097656 -11.453125 129.359375 -11.453125 C 129.867188 -11.453125 130.375 -11.257812 130.875 -10.875 C 131.382812 -10.488281 131.769531 -10.296875 132.03125 -10.296875 C 133.039062 -10.046875 133.925781 -9.726562 134.6875 -9.34375 C 135.457031 -8.96875 136.222656 -8.523438 136.984375 -8.015625 C 138.253906 -7.503906 139.398438 -6.738281 140.421875 -5.71875 C 141.441406 -4.707031 142.457031 -3.816406 143.46875 -3.046875 C 144.738281 -2.796875 146.070312 -2.414062 147.46875 -1.90625 C 148.875 -1.394531 150.085938 -1.015625 151.109375 -0.765625 C 153.398438 -0.503906 155.6875 -0.3125 157.96875 -0.1875 C 160.257812 -0.0625 162.421875 0 164.453125 0 L 185.828125 0 C 189.390625 0 193.203125 0 197.265625 0 C 201.335938 0 205.03125 -0.632812 208.34375 -1.90625 C 210.632812 -2.414062 213.050781 -3.6875 215.59375 -5.71875 C 216.351562 -6.488281 216.988281 -7.632812 217.5 -9.15625 C 220.300781 -13.476562 221.765625 -18.25 221.890625 -23.46875 C 222.015625 -28.6875 222.078125 -33.710938 222.078125 -38.546875 L 222.078125 -99.59375 C 222.078125 -103.40625 222.015625 -108.804688 221.890625 -115.796875 C 221.765625 -122.796875 221.253906 -129.859375 220.359375 -136.984375 C 219.472656 -144.109375 217.882812 -149.707031 215.59375 -153.78125 Z M 107.21875 -56.46875 L 103.03125 -58.765625 C 102.769531 -59.015625 102.445312 -59.203125 102.0625 -59.328125 C 101.6875 -59.460938 101.375 -59.65625 101.125 -59.90625 C 100.863281 -60.414062 100.734375 -61.113281 100.734375 -62 C 100.734375 -62.894531 100.609375 -63.597656 100.359375 -64.109375 L 99.96875 -67.546875 C 100.226562 -68.046875 100.609375 -68.550781 101.109375 -69.0625 C 101.617188 -69.570312 102.003906 -69.953125 102.265625 -70.203125 C 103.285156 -71.734375 104.175781 -72.878906 104.9375 -73.640625 C 106.71875 -74.910156 108.6875 -75.800781 110.84375 -76.3125 C 113.007812 -76.820312 114.984375 -77.078125 116.765625 -77.078125 C 117.273438 -77.078125 117.972656 -77.203125 118.859375 -77.453125 C 119.753906 -77.710938 120.328125 -77.710938 120.578125 -77.453125 C 121.335938 -77.203125 122.097656 -76.695312 122.859375 -75.9375 C 123.628906 -75.175781 124.269531 -74.539062 124.78125 -74.03125 C 125.03125 -73.769531 125.28125 -73.578125 125.53125 -73.453125 C 125.789062 -73.328125 126.046875 -73.007812 126.296875 -72.5 C 126.554688 -71.988281 126.429688 -71.222656 125.921875 -70.203125 C 125.921875 -69.703125 125.984375 -68.878906 126.109375 -67.734375 C 126.234375 -66.585938 126.046875 -65.632812 125.546875 -64.875 C 125.285156 -64.613281 124.898438 -64.164062 124.390625 -63.53125 C 123.878906 -62.894531 123.375 -62.320312 122.875 -61.8125 L 120.203125 -58.765625 C 119.429688 -58.503906 118.597656 -58.25 117.703125 -58 C 116.816406 -57.75 115.992188 -57.367188 115.234375 -56.859375 C 114.722656 -56.597656 114.210938 -56.335938 113.703125 -56.078125 C 113.203125 -55.828125 112.695312 -55.703125 112.1875 -55.703125 C 111.164062 -55.453125 109.507812 -55.707031 107.21875 -56.46875 Z M 107.21875 -56.46875 "/></g></g></g><g fill="#8dc63f" fill-opacity="1"><g transform="translate(1779.973395, 1691.484125)"><g><path d="M 220.546875 -146.53125 C 220.546875 -143.21875 220.484375 -139.972656 220.359375 -136.796875 C 220.234375 -133.617188 219.789062 -130.375 219.03125 -127.0625 C 218.769531 -125.28125 218.191406 -123.304688 217.296875 -121.140625 C 216.410156 -118.984375 215.332031 -117.144531 214.0625 -115.625 C 212.03125 -113.070312 209.359375 -111.222656 206.046875 -110.078125 C 202.742188 -108.941406 199.4375 -108.117188 196.125 -107.609375 C 190.789062 -107.097656 185.453125 -106.90625 180.109375 -107.03125 C 174.765625 -107.15625 169.421875 -106.960938 164.078125 -106.453125 C 160.773438 -106.203125 157.34375 -105.566406 153.78125 -104.546875 C 150.21875 -103.535156 147.164062 -101.753906 144.625 -99.203125 C 143.851562 -98.441406 143.210938 -97.300781 142.703125 -95.78125 C 140.671875 -92.726562 139.398438 -89.289062 138.890625 -85.46875 C 138.378906 -81.65625 138.125 -77.96875 138.125 -74.40625 C 138.125 -70.59375 138.125 -65.3125 138.125 -58.5625 C 138.125 -51.820312 138.1875 -45.082031 138.3125 -38.34375 C 138.445312 -31.601562 138.382812 -26.328125 138.125 -22.515625 C 137.875 -16.921875 136.984375 -11.132812 135.453125 -5.15625 C 133.929688 0.820312 130.242188 5.210938 124.390625 8.015625 C 123.878906 8.265625 123.113281 8.515625 122.09375 8.765625 C 121.082031 9.023438 120.195312 9.285156 119.4375 9.546875 C 115.363281 10.554688 111.289062 11.125 107.21875 11.25 C 103.15625 11.382812 99.085938 11.453125 95.015625 11.453125 C 89.421875 11.453125 83.503906 11.453125 77.265625 11.453125 C 71.035156 11.453125 64.992188 11.195312 59.140625 10.6875 C 53.796875 9.925781 48.582031 8.84375 43.5 7.4375 C 38.414062 6.039062 33.328125 4.960938 28.234375 4.203125 C 24.421875 3.429688 20.539062 2.726562 16.59375 2.09375 C 12.65625 1.457031 8.90625 0.25 5.34375 -1.53125 L 1.53125 -3.8125 C 1.269531 -4.320312 1.007812 -4.832031 0.75 -5.34375 C 0.5 -5.851562 0.25 -6.234375 0 -6.484375 C -1.269531 -7.753906 -2.285156 -9.15625 -3.046875 -10.6875 C -3.816406 -12.976562 -4.453125 -15.648438 -4.953125 -18.703125 C -5.210938 -21.492188 -5.34375 -24.414062 -5.34375 -27.46875 C -5.34375 -30.519531 -5.34375 -33.445312 -5.34375 -36.25 L -5.34375 -168.28125 C -5.082031 -170.5625 -4.890625 -172.847656 -4.765625 -175.140625 C -4.640625 -177.429688 -4.320312 -179.59375 -3.8125 -181.625 C -2.800781 -184.175781 -1.53125 -186.59375 0 -188.875 C 1.53125 -191.164062 3.3125 -193.203125 5.34375 -194.984375 C 8.144531 -197.785156 11.453125 -200.328125 15.265625 -202.609375 C 19.078125 -204.898438 22.890625 -206.554688 26.703125 -207.578125 C 31.285156 -208.847656 36.117188 -209.421875 41.203125 -209.296875 C 46.296875 -209.171875 51.257812 -209.109375 56.09375 -209.109375 L 80.515625 -209.109375 C 83.566406 -209.109375 86.679688 -209.039062 89.859375 -208.90625 C 93.035156 -208.78125 96.28125 -208.460938 99.59375 -207.953125 C 102.394531 -207.703125 105.066406 -207.066406 107.609375 -206.046875 C 110.148438 -205.035156 112.691406 -204.273438 115.234375 -203.765625 C 121.085938 -202.742188 126.6875 -202.929688 132.03125 -204.328125 C 137.375 -205.734375 142.84375 -206.816406 148.4375 -207.578125 C 153.007812 -208.335938 157.585938 -208.84375 162.171875 -209.09375 C 166.753906 -209.351562 171.332031 -209.359375 175.90625 -209.109375 C 178.195312 -208.847656 180.550781 -208.65625 182.96875 -208.53125 C 185.382812 -208.40625 187.738281 -207.960938 190.03125 -207.203125 C 193.59375 -206.179688 196.898438 -204.398438 199.953125 -201.859375 C 203.003906 -199.316406 205.800781 -196.644531 208.34375 -193.84375 C 210.632812 -191.550781 212.734375 -189.066406 214.640625 -186.390625 C 216.546875 -183.722656 218.007812 -180.863281 219.03125 -177.8125 C 219.53125 -176.03125 219.84375 -174.054688 219.96875 -171.890625 C 220.101562 -169.734375 220.296875 -167.640625 220.546875 -165.609375 Z M 77.453125 0 C 81.015625 0 84.382812 -0.1875 87.5625 -0.5625 C 90.75 -0.945312 93.867188 -1.648438 96.921875 -2.671875 C 97.429688 -2.921875 98.066406 -3.171875 98.828125 -3.421875 C 99.585938 -3.679688 100.222656 -3.941406 100.734375 -4.203125 C 101.242188 -4.703125 101.6875 -5.144531 102.0625 -5.53125 C 102.445312 -5.914062 102.769531 -6.234375 103.03125 -6.484375 C 103.539062 -7.242188 104.175781 -7.941406 104.9375 -8.578125 C 105.695312 -9.222656 106.203125 -9.925781 106.453125 -10.6875 C 106.960938 -11.195312 107.34375 -11.894531 107.59375 -12.78125 C 107.851562 -13.675781 108.113281 -14.503906 108.375 -15.265625 C 109.382812 -18.566406 109.953125 -21.9375 110.078125 -25.375 C 110.210938 -28.8125 110.28125 -32.179688 110.28125 -35.484375 L 110.28125 -80.125 C 110.28125 -84.457031 110.597656 -89.101562 111.234375 -94.0625 C 111.867188 -99.019531 113.457031 -103.40625 116 -107.21875 C 118.03125 -110.269531 120.695312 -112.554688 124 -114.078125 C 127.3125 -115.609375 130.75 -116.628906 134.3125 -117.140625 C 139.40625 -118.160156 144.617188 -118.609375 149.953125 -118.484375 C 155.296875 -118.359375 160.515625 -118.296875 165.609375 -118.296875 C 168.398438 -118.546875 171.066406 -118.859375 173.609375 -119.234375 C 176.160156 -119.617188 178.707031 -120.320312 181.25 -121.34375 C 181.757812 -121.851562 182.394531 -122.234375 183.15625 -122.484375 C 183.914062 -122.742188 184.550781 -123 185.0625 -123.25 C 185.570312 -123.757812 186.015625 -124.332031 186.390625 -124.96875 C 186.773438 -125.601562 187.097656 -126.175781 187.359375 -126.6875 C 187.867188 -127.195312 188.3125 -127.769531 188.6875 -128.40625 C 189.070312 -129.039062 189.390625 -129.613281 189.640625 -130.125 C 190.148438 -130.625 190.40625 -131.253906 190.40625 -132.015625 C 190.40625 -132.785156 190.535156 -133.425781 190.796875 -133.9375 C 191.554688 -136.726562 192.0625 -139.648438 192.3125 -142.703125 C 192.570312 -145.765625 192.703125 -148.820312 192.703125 -151.875 C 192.703125 -156.707031 192.828125 -161.664062 193.078125 -166.75 C 193.328125 -171.832031 192.816406 -176.664062 191.546875 -181.25 C 191.296875 -182.007812 191.171875 -182.898438 191.171875 -183.921875 C 191.171875 -184.941406 190.914062 -185.832031 190.40625 -186.59375 C 188.882812 -189.132812 187.101562 -191.421875 185.0625 -193.453125 C 184.550781 -193.960938 183.847656 -194.28125 182.953125 -194.40625 C 182.066406 -194.539062 181.375 -194.734375 180.875 -194.984375 C 177.5625 -196.515625 173.488281 -197.535156 168.65625 -198.046875 C 163.0625 -198.296875 157.398438 -197.910156 151.671875 -196.890625 C 145.953125 -195.878906 140.546875 -194.351562 135.453125 -192.3125 C 132.148438 -191.300781 129.035156 -190.03125 126.109375 -188.5 C 123.179688 -186.96875 120.066406 -185.820312 116.765625 -185.0625 C 116.003906 -185.0625 115.113281 -184.929688 114.09375 -184.671875 C 113.070312 -184.421875 112.179688 -184.296875 111.421875 -184.296875 C 110.910156 -184.296875 110.273438 -184.488281 109.515625 -184.875 C 108.753906 -185.257812 108.117188 -185.578125 107.609375 -185.828125 C 104.554688 -187.359375 101.691406 -189.203125 99.015625 -191.359375 C 96.347656 -193.523438 93.359375 -195.113281 90.046875 -196.125 C 87.253906 -197.40625 84.140625 -198.109375 80.703125 -198.234375 C 77.265625 -198.359375 74.019531 -198.421875 70.96875 -198.421875 C 66.394531 -198.421875 61.816406 -198.421875 57.234375 -198.421875 C 52.660156 -198.421875 48.082031 -198.296875 43.5 -198.046875 C 38.15625 -198.046875 33.578125 -197.15625 29.765625 -195.375 C 28.492188 -194.863281 27.222656 -194.222656 25.953125 -193.453125 C 24.171875 -192.179688 22.707031 -190.53125 21.5625 -188.5 C 20.414062 -186.46875 19.585938 -184.429688 19.078125 -182.390625 C 17.554688 -177.554688 16.859375 -172.53125 16.984375 -167.3125 C 17.109375 -162.101562 17.171875 -156.957031 17.171875 -151.875 L 17.171875 -51.125 C 17.171875 -46.289062 17.109375 -41.394531 16.984375 -36.4375 C 16.859375 -31.476562 17.175781 -26.457031 17.9375 -21.375 C 18.1875 -19.332031 18.628906 -17.164062 19.265625 -14.875 C 19.898438 -12.59375 20.851562 -10.5625 22.125 -8.78125 C 24.164062 -6.226562 26.835938 -4.316406 30.140625 -3.046875 C 33.453125 -1.773438 36.757812 -0.882812 40.0625 -0.375 C 45.914062 0.125 52.082031 0.3125 58.5625 0.1875 C 65.050781 0.0625 71.347656 0 77.453125 0 Z M 77.453125 0 "/></g></g></g><g fill="#f1842e" fill-opacity="1"><g transform="translate(1940.971613, 1791.647441)"><g><path d="M 9.140625 56.78125 C 7.472656 56.78125 6.085938 55.488281 4.984375 52.90625 C 4.796875 52.351562 4.703125 51.429688 4.703125 50.140625 C 4.703125 48.285156 5.535156 46.992188 7.203125 46.265625 C 15.878906 42.566406 22.296875 37.253906 26.453125 30.328125 C 30.609375 23.398438 33.332031 14.859375 34.625 4.703125 C 35.914062 -5.453125 36.5625 -19.113281 36.5625 -36.28125 L 36.5625 -91.96875 C 36.5625 -96.769531 36.421875 -100.273438 36.140625 -102.484375 C 35.867188 -104.703125 34.71875 -106.640625 32.6875 -108.296875 C 30.65625 -109.960938 27.238281 -110.796875 22.4375 -110.796875 C 20.21875 -110.796875 18.550781 -111.117188 17.4375 -111.765625 C 16.332031 -112.410156 15.78125 -113.9375 15.78125 -116.34375 C 15.78125 -117.445312 16.148438 -118.503906 16.890625 -119.515625 C 17.628906 -120.535156 18.738281 -121.140625 20.21875 -121.328125 C 31.851562 -122.984375 41.828125 -125.382812 50.140625 -128.53125 C 52.722656 -129.445312 54.847656 -130 56.515625 -130.1875 L 57.34375 -130.1875 C 60.289062 -130.1875 61.765625 -128.429688 61.765625 -124.921875 L 61.765625 -27.421875 C 61.765625 -4.710938 57.835938 13.890625 49.984375 28.390625 C 42.140625 42.890625 28.988281 52.351562 10.53125 56.78125 Z M 47.09375 -160.9375 C 41.914062 -160.9375 37.570312 -162.550781 34.0625 -165.78125 C 30.5625 -169.007812 28.8125 -173.023438 28.8125 -177.828125 C 28.8125 -182.078125 30.929688 -185.863281 35.171875 -189.1875 C 39.421875 -192.507812 44.222656 -194.171875 49.578125 -194.171875 C 54.191406 -194.171875 57.976562 -192.554688 60.9375 -189.328125 C 63.894531 -186.097656 65.375 -181.988281 65.375 -177 C 65.375 -172.570312 63.617188 -168.785156 60.109375 -165.640625 C 56.597656 -162.503906 52.257812 -160.9375 47.09375 -160.9375 Z M 47.09375 -160.9375 "/></g></g></g><g fill="#f1842e" fill-opacity="1"><g transform="translate(2024.069572, 1791.647441)"><g><path d="M 46.53125 3.328125 C 35.457031 3.328125 26.503906 0.1875 19.671875 -6.09375 C 12.835938 -12.375 9.421875 -20.222656 9.421875 -29.640625 C 9.421875 -41.273438 13.296875 -50 21.046875 -55.8125 C 28.804688 -61.632812 38.039062 -65.421875 48.75 -67.171875 C 59.457031 -68.921875 73.304688 -70.257812 90.296875 -71.1875 L 90.296875 -93.078125 C 90.296875 -102.117188 88.035156 -108.992188 83.515625 -113.703125 C 78.992188 -118.410156 71.742188 -120.765625 61.765625 -120.765625 C 56.046875 -120.765625 51.0625 -119.007812 46.8125 -115.5 C 42.5625 -112 40.4375 -107.289062 40.4375 -101.375 C 40.4375 -98.425781 41.128906 -95.984375 42.515625 -94.046875 C 43.898438 -92.109375 45.378906 -90.488281 46.953125 -89.1875 C 48.523438 -87.894531 49.3125 -87.160156 49.3125 -86.984375 C 49.3125 -85.867188 48.15625 -84.429688 45.84375 -82.671875 C 43.53125 -80.921875 40.710938 -80.046875 37.390625 -80.046875 C 31.847656 -80.046875 27.460938 -82.078125 24.234375 -86.140625 C 21.003906 -90.203125 19.390625 -95.003906 19.390625 -100.546875 C 19.390625 -110.148438 23.679688 -117.257812 32.265625 -121.875 C 40.859375 -126.5 51.25 -128.8125 63.4375 -128.8125 C 78.570312 -128.8125 90.894531 -125.945312 100.40625 -120.21875 C 109.914062 -114.488281 114.671875 -103.867188 114.671875 -88.359375 L 114.671875 -23.828125 C 114.859375 -19.941406 116.0625 -16.242188 118.28125 -12.734375 C 120.5 -9.234375 124.097656 -7.484375 129.078125 -7.484375 C 130.554688 -7.484375 131.617188 -7.203125 132.265625 -6.640625 C 132.910156 -6.085938 133.234375 -4.890625 133.234375 -3.046875 C 133.234375 -0.828125 131.523438 0.785156 128.109375 1.796875 C 124.691406 2.816406 121.320312 3.328125 118 3.328125 C 110.976562 3.328125 104.789062 1.296875 99.4375 -2.765625 C 94.082031 -6.828125 91.035156 -12.273438 90.296875 -19.109375 C 86.421875 -11.910156 80.46875 -6.367188 72.4375 -2.484375 C 64.40625 1.390625 55.769531 3.328125 46.53125 3.328125 Z M 55.40625 -11.640625 C 61.675781 -11.640625 67.488281 -13.207031 72.84375 -16.34375 C 78.207031 -19.476562 82.457031 -23.769531 85.59375 -29.21875 C 88.726562 -34.664062 90.296875 -40.710938 90.296875 -47.359375 L 90.296875 -63.15625 C 70.910156 -61.675781 57.242188 -58.535156 49.296875 -53.734375 C 41.359375 -48.929688 37.390625 -41.175781 37.390625 -30.46875 C 37.390625 -17.914062 43.394531 -11.640625 55.40625 -11.640625 Z M 56.234375 -148.46875 C 55.316406 -148.84375 54.578125 -149.535156 54.015625 -150.546875 C 53.460938 -151.566406 53.1875 -152.722656 53.1875 -154.015625 C 53.1875 -155.117188 53.554688 -156.316406 54.296875 -157.609375 L 75.078125 -195.5625 C 77.109375 -199.8125 80.429688 -201.9375 85.046875 -201.9375 C 86.335938 -201.9375 88.09375 -201.472656 90.3125 -200.546875 C 92.34375 -199.441406 94.003906 -197.960938 95.296875 -196.109375 C 96.585938 -194.265625 97.234375 -192.328125 97.234375 -190.296875 C 97.234375 -188.078125 96.398438 -185.953125 94.734375 -183.921875 L 66.484375 -150.96875 C 64.453125 -148.75 62.238281 -147.640625 59.84375 -147.640625 C 58.550781 -147.640625 57.347656 -147.914062 56.234375 -148.46875 Z M 56.234375 -148.46875 "/></g></g></g></svg>